<svg width="500" height="500" viewBox="0 0 500 500" fill="none" xmlns="http://www.w3.org/2000/svg">
  <rect width="500" height="500" rx="250" fill="url(#paint0_linear_1_2)"/>
  <path fill-rule="evenodd" clip-rule="evenodd" d="M250 151C229.57 151 213 167.57 213 188C213 208.43 229.57 225 250 225C270.43 225 287 208.43 287 188C287 167.57 270.43 151 250 151ZM190 188C190 154.863 216.863 128 250 128C283.137 128 310 154.863 310 188C310 221.137 283.137 248 250 248C216.863 248 190 221.137 190 188Z" fill="white"/>
  <path fill-rule="evenodd" clip-rule="evenodd" d="M151.964 274.213C159.785 260.003 174.404 251 190.315 251H309.685C325.596 251 340.215 260.003 348.036 274.213L391.677 349.213C399.914 364.058 398.93 382.255 388.226 396.047C377.522 409.839 359.983 417 341.685 417H158.315C140.017 417 122.478 409.839 111.774 396.047C101.07 382.255 100.086 364.058 108.323 349.213L151.964 274.213ZM190.315 274C184.359 274 178.777 276.834 175.367 281.607L131.725 356.607C128.107 362.792 128.433 370.384 131.953 376.245C135.474 382.106 142.018 385.5 149.056 385.5H350.944C357.982 385.5 364.526 382.106 368.047 376.245C371.567 370.384 371.893 362.792 368.275 356.607L324.633 281.607C321.223 276.834 315.641 274 309.685 274H190.315Z" fill="white"/>
  <path d="M239.25 283C239.25 277.34 243.84 272.75 249.5 272.75C255.16 272.75 259.75 277.34 259.75 283V337.75C259.75 343.41 255.16 348 249.5 348C243.84 348 239.25 343.41 239.25 337.75V283Z" fill="white"/>
  <path d="M274.25 314.5C274.25 308.84 278.84 304.25 284.5 304.25C290.16 304.25 294.75 308.84 294.75 314.5C294.75 320.16 290.16 324.75 284.5 324.75C278.84 324.75 274.25 320.16 274.25 314.5Z" fill="white"/>
  <path d="M205.25 314.5C205.25 308.84 209.84 304.25 215.5 304.25C221.16 304.25 225.75 308.84 225.75 314.5C225.75 320.16 221.16 324.75 215.5 324.75C209.84 324.75 205.25 320.16 205.25 314.5Z" fill="white"/>
  <defs>
    <linearGradient id="paint0_linear_1_2" x1="0" y1="0" x2="500" y2="500" gradientUnits="userSpaceOnUse">
      <stop stop-color="#3B82F6"/>
      <stop offset="1" stop-color="#10B981"/>
    </linearGradient>
  </defs>
</svg>